<?xml version="1.0" encoding="UTF-8" standalone="no"?>
<!-- Created with Inkscape (http://www.inkscape.org/) -->

<svg
   width="242.57994mm"
   height="155.83958mm"
   viewBox="0 0 242.57994 155.83958"
   version="1.1"
   id="svg1"
   xml:space="preserve"
   xmlns:inkscape="http://www.inkscape.org/namespaces/inkscape"
   xmlns:sodipodi="http://sodipodi.sourceforge.net/DTD/sodipodi-0.dtd"
   xmlns="http://www.w3.org/2000/svg"
   xmlns:svg="http://www.w3.org/2000/svg"><sodipodi:namedview
     id="namedview1"
     pagecolor="#ffffff"
     bordercolor="#000000"
     borderopacity="0.25"
     inkscape:showpageshadow="2"
     inkscape:pageopacity="0.0"
     inkscape:pagecheckerboard="0"
     inkscape:deskcolor="#d1d1d1"
     inkscape:document-units="mm"><inkscape:page
       x="0"
       y="0"
       width="242.57994"
       height="155.83958"
       id="page2"
       margin="0"
       bleed="0" /></sodipodi:namedview><defs
     id="defs1" /><g
     inkscape:label="Layer 1"
     inkscape:groupmode="layer"
     id="layer1"
     transform="translate(-21.960416,-48.683332)"><path
       style="fill:#000000"
       d="m 54.836313,204.28037 c -0.294253,-0.29356 -0.04489,-0.76076 0.550954,-1.03224 l 0.661459,-0.30138 v -5.83306 -5.83305 l -0.661459,-0.25149 c -0.363802,-0.1383 -0.661458,-0.43302 -0.661458,-0.65491 0,-0.33461 0.451282,-0.40342 2.645833,-0.40342 2.147218,0 2.645833,0.073 2.645833,0.38757 0,0.21316 -0.238125,0.515 -0.529166,0.67076 -0.503936,0.2697 -0.529167,0.55399 -0.529167,5.96244 v 5.67923 h 1.865223 c 2.122858,0 3.106074,-0.39444 3.954983,-1.58662 0.313641,-0.44047 0.680216,-0.73289 0.814609,-0.64984 0.329172,0.20344 0.274645,1.60422 -0.112423,2.88806 l -0.316108,1.04848 -5.109305,0.01 c -2.810117,0.005 -5.159031,-0.0398 -5.219808,-0.10039 z m 14.532111,-0.0896 c -0.08215,-0.13291 0.222638,-0.55904 0.677297,-0.94694 0.643698,-0.54919 1.404533,-2.07987 3.437714,-6.91615 1.436084,-3.41596 2.800454,-6.33033 3.031935,-6.47634 0.286968,-0.18101 0.513275,-0.17308 0.711298,0.0249 0.159734,0.15974 1.221373,2.53831 2.359198,5.28572 3.116378,7.52487 3.151594,7.59918 3.889328,8.20714 1.0946,0.90205 0.602502,1.14458 -2.102081,1.03608 -1.966523,-0.0789 -2.454472,-0.17931 -2.523476,-0.51922 -0.04705,-0.23178 0.01248,-0.42322 0.132291,-0.42546 0.119811,-0.002 0.38611,-0.11056 0.591777,-0.24075 0.313079,-0.19819 0.270017,-0.47669 -0.264584,-1.71122 l -0.638522,-1.47453 -2.41145,-0.005 -2.41145,-0.005 -0.43282,1.13332 c -0.567461,1.48587 -0.546001,1.97009 0.09635,2.17396 0.501651,0.15923 0.753856,0.88981 0.330729,0.95805 -1.012114,0.16325 -4.357111,0.0888 -4.47353,-0.0996 z m 8.325426,-6.15014 c 0.1274,-0.41317 -1.340209,-3.87726 -1.544576,-3.64575 -0.100104,0.1134 -0.483764,1.00317 -0.852578,1.97727 l -0.670572,1.77108 0.699321,0.081 c 1.330403,0.15408 2.287153,0.0799 2.368405,-0.18359 z m 11.229353,6.10042 c -0.843264,-0.37885 -0.859896,-0.41983 -0.859896,-2.11889 0,-1.51888 0.06131,-1.73256 0.497068,-1.73256 0.307035,0 0.627718,0.31541 0.838811,0.82504 0.65793,1.58839 2.822907,2.2834 4.466031,1.43369 0.829078,-0.42873 1.077257,-0.88368 1.077257,-1.97479 0,-0.92462 -0.450579,-1.31514 -2.90918,-2.52142 -3.091599,-1.51685 -3.85268,-2.48672 -3.64527,-4.64527 0.230266,-2.39642 1.996257,-3.70059 5.011003,-3.70059 0.950986,0 2.10402,0.13071 2.562298,0.29046 0.794383,0.27693 0.833232,0.35638 0.833232,1.70418 0,0.77754 -0.10348,1.47766 -0.229955,1.55583 -0.126475,0.0782 -0.656355,-0.272 -1.17751,-0.77814 -0.765173,-0.74312 -1.153787,-0.92025 -2.019004,-0.92025 -1.289592,0 -2.129781,0.71446 -2.129781,1.81108 0,0.9501 0.435795,1.32057 2.967274,2.52243 2.377444,1.12873 3.386845,2.2422 3.568486,3.93641 0.166229,1.55045 -0.769607,3.27254 -2.180631,4.01271 -1.353408,0.70995 -5.357003,0.89006 -6.670233,0.30008 z m 13.868197,0.16404 c -0.65544,-0.12726 -0.53294,-0.71347 0.22087,-1.05693 l 0.66145,-0.30138 v -5.83306 -5.83305 l -0.68296,-0.25966 c -0.37563,-0.14282 -0.6337,-0.40776 -0.57348,-0.58877 0.0809,-0.24323 1.39821,-0.34788 5.04858,-0.40108 l 4.93911,-0.072 v 1.59334 c 0,0.87634 -0.11365,1.59334 -0.25255,1.59334 -0.13891,0 -0.55022,-0.29766 -0.91402,-0.66146 -0.58867,-0.58867 -0.88114,-0.66146 -2.65786,-0.66146 h -1.9964 v 2.15436 2.15436 l 1.65364,-0.16821 c 1.19203,-0.12126 1.77628,-0.31643 2.09294,-0.69915 0.80186,-0.96916 1.01592,-0.63504 1.01592,1.58573 0,1.16416 -0.0983,2.11666 -0.21846,2.11666 -0.12016,0 -0.4981,-0.29765 -0.83987,-0.66146 -0.52492,-0.55875 -0.86075,-0.66145 -2.16279,-0.66145 h -1.54138 v 2.54069 2.54069 l 2.27949,-0.0936 c 2.2608,-0.0928 2.28652,-0.10175 3.13689,-1.08549 0.47157,-0.54553 1.05854,-0.99187 1.30438,-0.99187 0.37205,0 0.41685,0.1663 0.26728,0.99219 -0.0988,0.5457 -0.31258,1.38612 -0.47501,1.86758 l -0.29532,0.8754 -4.78493,0.0506 c -2.63171,0.0279 -4.98319,0.0121 -5.22552,-0.0349 z m 15.54528,-0.0247 c -0.31326,-0.31148 -0.0348,-0.85781 0.55058,-1.08038 l 0.66146,-0.25149 v -5.81294 -5.81295 l -0.72016,-0.34517 c -1.41791,-0.67958 -0.78265,-0.87343 3.10141,-0.9464 3.54732,-0.0666 3.92502,-0.0268 5.01159,0.52917 1.67185,0.85537 2.26746,1.78079 2.2511,3.49762 -0.0158,1.66076 -0.5649,2.63487 -1.82353,3.23507 l -0.88494,0.422 1.31528,2.07169 c 1.21959,1.92096 2.34151,3.1376 3.52875,3.82664 0.7978,0.46302 0.19636,0.90967 -1.22492,0.90967 -2.2395,0 -2.49361,-0.22935 -5.61602,-5.06897 -0.7644,-1.18478 -1.07669,-1.46812 -1.49702,-1.3582 -0.48161,0.12594 -0.53112,0.35851 -0.53112,2.49494 0,2.25639 0.028,2.36882 0.66146,2.65746 0.75917,0.3459 0.88539,1.0008 0.19843,1.02961 -2.1672,0.0909 -4.89212,0.0923 -4.98235,0.003 z m 6.6061,-7.94818 c 0.36631,-0.13928 0.85031,-0.60962 1.07556,-1.0452 0.97336,-1.88226 0.0806,-3.38017 -2.17014,-3.64126 l -1.38906,-0.16113 v 2.5504 2.55039 h 0.90882 c 0.49985,0 1.20852,-0.11394 1.57482,-0.2532 z m 13.24947,5.21414 c -3.35974,-9.82688 -3.47201,-10.10881 -4.18822,-10.51719 -1.3739,-0.78339 -0.86762,-1.05833 1.94886,-1.05833 2.75031,0 3.1153,0.17377 2.13392,1.01592 -0.50377,0.4323 -0.49933,0.47504 0.27912,2.68825 0.43506,1.23692 1.04597,2.9931 1.35759,3.9026 0.31161,0.90952 0.6325,1.65039 0.71307,1.64641 0.0806,-0.004 0.92652,-2.11734 1.87988,-4.69636 2.25713,-6.10595 2.28665,-6.11522 4.2236,-1.32775 0.7828,1.93479 1.70946,4.17265 2.05924,4.97301 l 0.63598,1.45521 1.15771,-3.70417 c 1.31733,-4.21488 1.39058,-4.78921 0.64113,-5.02708 -0.29104,-0.0924 -0.52916,-0.33852 -0.52916,-0.54699 0,-0.29928 0.47329,-0.37905 2.24896,-0.37905 1.635,0 2.24895,0.0912 2.24895,0.33413 0,0.18378 -0.26347,0.45167 -0.58548,0.59532 -0.47753,0.21301 -0.97762,1.44259 -2.71198,6.66783 -1.16957,3.52365 -2.26732,6.54579 -2.43944,6.71586 -0.17212,0.17006 -0.47975,0.2452 -0.68362,0.16697 -0.20387,-0.0782 -1.25324,-2.29118 -2.33193,-4.91765 -1.0787,-2.62647 -2.03614,-4.69163 -2.12766,-4.58924 -0.0915,0.10238 -0.73064,1.73397 -1.42028,3.62574 -1.9878,5.45282 -2.23191,5.95312 -2.90471,5.95312 -0.51229,0 -0.7187,-0.38268 -1.60553,-2.97656 z m 25.21487,2.72792 c -1.99827,-0.64253 -3.71523,-2.42441 -4.42019,-4.58737 -0.17918,-0.54976 -0.31989,-1.76753 -0.31269,-2.70618 0.0333,-4.34351 3.1502,-7.27923 7.72474,-7.27578 4.43772,0.003 7.37417,2.72507 7.47977,6.93282 0.0802,3.19466 -1.14731,5.4992 -3.7376,7.01721 -1.04734,0.61379 -1.56281,0.72554 -3.61581,0.78394 -1.31688,0.0375 -2.72008,-0.0366 -3.11822,-0.16464 z m 4.94168,-1.93852 c 1.3378,-0.75815 2.26074,-2.50968 2.45577,-4.6605 0.48359,-5.33311 -4.09737,-8.37241 -7.49045,-4.96963 -1.10418,1.10731 -1.69665,2.72712 -1.69665,4.63855 0,1.12167 0.72605,3.31716 1.36606,4.13081 1.18441,1.50572 3.55586,1.88619 5.36527,0.86077 z m 12.6494,1.97802 c -2.30347,-0.0811 -2.84685,-0.4617 -1.52136,-1.06563 l 0.66146,-0.30138 v -5.83218 -5.83218 l -0.66146,-0.30137 c -0.3638,-0.16577 -0.66146,-0.47156 -0.66146,-0.67953 0,-0.31522 0.67157,-0.36319 4.0349,-0.28827 3.45633,0.077 4.16371,0.16578 4.93328,0.61906 1.25289,0.73797 1.91639,1.72741 2.06449,3.07863 0.14644,1.33612 -0.55338,2.61007 -1.95133,3.55214 l -0.82795,0.55797 1.25217,1.96188 c 1.14826,1.7991 2.31727,3.04884 3.61663,3.86642 0.43674,0.27481 0.45099,0.35356 0.10698,0.59126 -0.5828,0.40269 -2.55793,0.34138 -3.4236,-0.10628 -0.75263,-0.3892 -2.46757,-2.61119 -3.83524,-4.9692 -0.46655,-0.80438 -0.91037,-1.25677 -1.23297,-1.25677 -0.46035,0 -0.50402,0.21828 -0.50402,2.51921 0,2.43041 0.0233,2.52984 0.66145,2.8206 0.36381,0.16576 0.66146,0.44698 0.66146,0.62494 0,0.43255 -0.76524,0.53252 -3.37343,0.44068 z m 4.55963,-7.99126 c 0.84658,-0.32187 1.44657,-1.67295 1.26606,-2.85095 -0.18223,-1.18918 -1.17384,-1.91323 -2.62023,-1.91323 h -1.15494 v 2.51354 2.51354 h 0.90881 c 0.49985,0 1.21999,-0.1183 1.6003,-0.2629 z m 10.82916,7.95787 c -0.29213,-0.29517 -0.0428,-0.76106 0.55235,-1.03224 l 0.66146,-0.30138 v -5.83218 -5.83218 l -0.66146,-0.30138 c -0.3638,-0.16576 -0.66146,-0.46086 -0.66146,-0.65578 0,-0.27253 0.61129,-0.35441 2.64584,-0.35441 2.24454,0 2.64583,0.0639 2.64583,0.42164 0,0.23191 -0.2307,0.48198 -0.51267,0.55572 -0.45866,0.11994 -0.52138,0.42402 -0.59531,2.8862 -0.0455,1.51368 -0.0103,2.75189 0.0781,2.75158 0.0884,-3.1e-4 1.03366,-0.98282 2.10057,-2.18337 3.03535,-3.41555 2.83042,-3.10424 2.29924,-3.49265 -0.98509,-0.72032 -0.50654,-0.93912 2.05404,-0.93912 2.0435,0 2.51354,0.0733 2.51354,0.39183 0,0.21551 -0.28941,0.46448 -0.64314,0.55326 -0.35373,0.0888 -1.77608,1.38316 -3.16079,2.87641 l -2.51766,2.715 3.03001,3.32898 c 1.66651,1.83094 3.26746,3.40435 3.55767,3.49646 0.65033,0.2064 0.6997,0.92157 0.0646,0.93629 -3.47169,0.0805 -4.62631,0.0329 -4.85967,-0.20051 -0.19448,-0.19448 -0.11017,-0.39581 0.28027,-0.66927 0.55225,-0.38681 0.54457,-0.40691 -0.69415,-1.81657 -1.7972,-2.04518 -4.02803,-4.20089 -4.12742,-3.98844 -0.0468,0.1 -0.0383,1.39197 0.0188,2.87111 0.0997,2.58242 0.12914,2.6957 0.74117,2.84931 0.35055,0.088 0.63737,0.3284 0.63737,0.53423 0,0.29236 -0.58407,0.3926 -2.66901,0.45798 -1.46796,0.0461 -2.71812,0.0341 -2.77813,-0.0265 z m 19.31467,-0.007 c -1.33738,-0.31972 -1.43211,-0.47053 -1.43211,-2.27971 0,-1.49111 0.0622,-1.70418 0.49706,-1.70418 0.30012,0 0.6242,0.30692 0.81793,0.77462 0.47446,1.14544 1.17104,1.65362 2.46688,1.79968 2.15644,0.24306 3.53174,-1.07279 2.93686,-2.80989 -0.17016,-0.4969 -0.75921,-0.95004 -2.10132,-1.61649 -1.02569,-0.50933 -2.19223,-1.14087 -2.59232,-1.40344 -2.49563,-1.63781 -2.29297,-5.36923 0.36565,-6.7325 1.27664,-0.65463 3.61029,-0.79955 5.30304,-0.32932 0.92861,0.25796 0.94805,0.29116 1.00578,1.71832 0.0699,1.72866 -0.29056,1.88606 -1.51511,0.66152 -0.6426,-0.64261 -1.01653,-0.79375 -1.96372,-0.79375 -1.38094,0 -2.04573,0.57381 -2.04573,1.76576 0,1.00208 0.46196,1.41051 2.77273,2.45139 2.12054,0.9552 2.96628,1.6485 3.47907,2.85196 0.85029,1.99552 0.009,4.22375 -1.99394,5.28031 -0.94407,0.49804 -1.54858,0.61001 -3.175,0.58808 -1.1049,-0.0149 -2.37648,-0.11496 -2.82575,-0.22236 z M 62.534396,178.33463 c -0.819453,-1.3259 4.720486,-4.76299 10.844537,-6.72818 12.839888,-4.12023 29.419017,-6.22363 52.255207,-6.6296 4.29286,-0.0763 11.31755,-0.19926 15.61041,-0.2732 4.29287,-0.0739 13.93693,-0.1497 21.43125,-0.16837 26.96587,-0.0672 41.06372,-1.14574 51.99062,-3.97763 4.54482,-1.17787 4.54258,-1.17765 4.77159,-0.45613 0.39335,1.23935 -2.454,2.77637 -9.17219,4.95123 -8.7176,2.82213 -18.0305,4.11911 -36.34523,5.06167 -8.85165,0.45555 -14.35688,0.57485 -43.52395,0.94317 -16.26389,0.20538 -26.7772,0.67682 -35.71875,1.60169 -13.46229,1.39247 -20.553661,2.66202 -28.133553,5.03664 -3.018794,0.94573 -3.748366,1.06194 -4.009941,0.63871 z M 31.30092,169.85702 c -1.719164,-0.34154 -4.038981,-1.57275 -5.52878,-2.93435 -4.268713,-3.90135 -5.045955,-11.09029 -1.855472,-17.1618 1.943677,-3.69882 6.942095,-8.19026 11.69364,-10.50759 l 2.448039,-1.1939 -1.177047,-1.30916 c -1.833972,-2.03982 -2.372226,-3.71183 -2.372226,-7.36898 0,-2.55165 0.09807,-3.29052 0.607691,-4.57825 3.419839,-8.64149 14.924388,-15.10242 23.142728,-12.99692 3.108129,0.79629 5.03925,2.40707 5.8645,4.89166 0.589044,1.77345 0.418531,5.0475 -0.371544,7.13407 -0.677736,1.78989 -2.533849,3.69889 -4.396432,4.52169 -1.69765,0.74995 -4.892787,1.00631 -5.370348,0.4309 -0.52007,-0.62666 -0.14315,-1.09922 1.279839,-1.60462 2.502936,-0.88896 4.089268,-2.91766 4.738312,-6.05963 0.592117,-2.86639 -0.261707,-5.08653 -2.280597,-5.93008 -0.475063,-0.19849 -1.674606,-0.3609 -2.665651,-0.3609 -1.500819,0 -2.112081,0.14865 -3.658264,0.88964 -3.497969,1.67636 -6.969217,5.61684 -8.6252,9.79114 -0.755478,1.90436 -0.855083,2.45546 -0.867059,4.79734 -0.01375,2.68807 0.23921,3.76877 1.214221,5.18748 l 0.473903,0.68957 1.927297,-0.34492 c 4.169978,-0.74628 6.713191,-0.32568 7.351707,1.21583 0.721811,1.74261 -0.73097,3.64583 -3.242965,4.24845 -1.717593,0.41204 -4.692328,0.19215 -6.679361,-0.49373 l -1.5875,-0.54797 -1.162176,0.67829 c -2.682606,1.56566 -6.390292,5.69885 -8.042123,8.96506 -1.615624,3.19462 -1.995791,7.41206 -0.880746,9.7707 3.413272,7.22003 15.16319,3.58529 20.741372,-6.41615 0.669589,-1.20054 1.316989,-2.18281 1.438665,-2.18281 0.346577,0 0.737299,1.25627 0.737299,2.37061 0,5.95838 -8.152221,14.21278 -16.060788,16.2621 -1.686224,0.43694 -5.015562,0.50866 -6.834934,0.14723 z m 17.802493,-31.11754 c 1.116867,-0.29931 0.598327,-0.62699 -0.992187,-0.62699 -0.873125,0 -1.5875,0.11078 -1.5875,0.24618 0,0.39954 1.618347,0.63844 2.579687,0.38081 z m 174.360407,26.09104 c -0.79965,-0.49392 -0.51349,-1.30878 1.07943,-3.07371 2.70636,-2.99863 4.89696,-7.15393 7.93162,-15.04536 0.72749,-1.89177 1.40542,-3.6452 1.50653,-3.8965 0.1011,-0.2513 -0.75059,0.47257 -1.89266,1.60861 -1.32927,1.32226 -2.63354,2.33563 -3.62451,2.81612 -3.72351,1.80541 -7.31365,0.3003 -7.3151,-3.06675 l -4.2e-4,-0.95101 -1.93662,1.88088 c -1.06514,1.03449 -2.70225,2.29589 -3.63802,2.8031 -1.58457,0.85889 -1.86491,0.92221 -4.08265,0.92221 -2.07121,0 -2.49399,-0.0804 -3.24713,-0.61759 -1.29726,-0.92527 -2.04453,-2.68181 -2.04453,-4.80588 0,-1.6e-4 -0.91575,0.88345 -2.03499,1.96358 -4.51401,4.35626 -8.58296,6.24487 -12.73613,5.91149 -2.78312,-0.2234 -4.58722,-1.42622 -5.78428,-3.85645 -0.81378,-1.65212 -0.98584,-5.49978 -0.35745,-7.99356 0.5739,-2.27753 2.71695,-6.56234 4.43026,-8.85784 1.80424,-2.41732 4.4709,-5.06818 6.31041,-6.273 4.40344,-2.88412 9.03593,-2.67838 10.57298,0.46956 1.04099,2.13202 0.47544,5.82975 -1.28242,8.38471 -2.40969,3.50236 -7.91174,6.79068 -12.21526,7.30051 l -1.45521,0.17239 -0.0713,1.71979 c -0.0856,2.06626 0.51128,3.26351 1.92065,3.85238 1.24489,0.52015 2.24171,0.47895 4.17824,-0.17268 2.40365,-0.80881 4.92728,-2.5985 6.58935,-4.67298 2.20567,-2.75295 2.54247,-3.30373 3.54964,-5.80481 4.47145,-11.1039 13.59965,-17.88389 19.31893,-14.34918 0.46319,0.28626 0.9179,0.71784 1.01046,0.95906 0.13523,0.35239 0.29784,0.24796 0.82738,-0.53132 0.36249,-0.53345 0.92364,-1.02373 1.24701,-1.0895 1.21756,-0.24765 4.95867,-0.35717 5.08737,-0.14894 0.0737,0.11933 -1.46208,4.24549 -3.41295,9.16924 -4.07287,10.27939 -4.53801,11.64882 -4.29098,12.63309 0.76485,3.0474 5.76539,-1.64106 8.83401,-8.28268 1.13593,-2.45856 3.80287,-9.86645 3.61845,-10.05087 -0.0738,-0.0738 -0.62631,-0.10521 -1.22773,-0.0697 -0.6162,0.0364 -1.17689,-0.0704 -1.28456,-0.24463 -0.21258,-0.34397 0.3524,-3.07545 0.70959,-3.4306 0.12521,-0.1245 0.92816,-0.26267 1.78432,-0.30704 l 1.55665,-0.0807 1.02662,-2.64149 c 1.59992,-4.1166 4.06027,-9.01205 5.986,-11.9106 2.06918,-3.11446 5.16092,-6.29377 7.20428,-7.408328 1.33255,-0.726849 1.67078,-0.79375 4.01293,-0.79375 2.36289,0 2.61169,0.05038 3.26628,0.661458 1.08818,1.015835 1.45204,1.942844 1.45204,3.69937 0,2.85653 -1.68251,6.75015 -4.32827,10.01636 -1.32991,1.64179 -6.19969,5.86344 -6.76362,5.86344 -0.48831,0 -0.3145,-0.61486 0.52356,-1.85209 3.81947,-5.63872 7.33102,-13.21842 6.78414,-14.64357 -0.28245,-0.736059 -1.63796,-0.53925 -2.69834,0.39177 -1.39311,1.22317 -4.14992,5.51648 -5.85129,9.11249 -1.41292,2.98635 -3.54118,8.29601 -3.54118,8.83466 0,0.14518 1.44455,0.22624 3.47237,0.19485 2.98122,-0.0461 3.51212,0.008 3.75342,0.38466 0.43691,0.68149 -0.19213,2.44898 -1.00307,2.81846 -0.36373,0.16572 -2.25008,0.38106 -4.19188,0.4785 l -3.53056,0.17719 -1.47815,4.52602 c -0.81297,2.4893 -2.78746,8.23588 -4.38774,12.77017 -6.15505,17.43998 -8.45403,21.5382 -13.3361,23.77329 -1.68053,0.76937 -3.81143,1.07893 -4.49985,0.6537 z m -7.66057,-20.34059 c 2.29293,-1.16976 5.41673,-5.31118 7.84077,-10.395 3.07363,-6.44614 3.56991,-9.45492 1.71754,-10.41282 -1.11679,-0.57752 -2.12416,-0.471 -3.43344,0.36303 -2.27812,1.45121 -4.53492,4.50854 -6.74353,9.13559 -1.83698,3.8485 -2.5086,5.94362 -2.68354,8.37134 -0.12722,1.76543 -0.0792,2.06466 0.43508,2.71198 0.68721,0.86496 1.49039,0.92824 2.86712,0.22588 z m -20.5531,-7.08195 c 6.04372,-2.99775 10.3638,-11.99549 5.75939,-11.99549 -0.91341,0 -1.25917,0.18916 -2.51253,1.37454 -0.79935,0.756 -1.97728,2.16261 -2.61762,3.12581 -1.3795,2.07506 -3.4976,6.38877 -3.73386,7.60434 -0.15251,0.7847 -0.10951,0.85989 0.49186,0.85989 0.36244,0 1.53818,-0.43609 2.61276,-0.96909 z M 53.932059,162.61769 c 0,-0.20626 0.431475,-1.48829 0.958833,-2.84896 1.001591,-2.58427 8.517611,-23.04655 8.749622,-23.82075 0.180952,-0.60382 0.426575,-0.67111 3.258125,-0.89262 l 2.458918,-0.19236 -0.158335,1.02943 c -0.08708,0.56619 -0.234604,1.2845 -0.327821,1.59625 -0.118141,0.39509 0.262723,0.14818 1.257172,-0.81502 1.977136,-1.91501 4.072743,-2.89778 6.42536,-3.01329 1.590606,-0.0781 1.982822,-0.004 2.778125,0.52694 0.509323,0.33984 1.154752,1.10968 1.434286,1.71076 l 0.508245,1.09287 1.712546,-1.45279 c 4.035529,-3.42345 7.828179,-4.08296 10.322953,-1.79507 l 0.970927,0.89041 -0.01722,2.20252 c -0.01693,2.1645 -0.05514,2.28931 -2.213588,7.2296 -3.618226,8.28148 -4.247325,10.34937 -3.404813,11.19188 0.940009,0.94001 2.952774,-0.35066 5.302188,-3.39998 1.987143,-2.57913 2.868489,-4.27162 4.286196,-8.231 4.787882,-13.37164 9.659522,-25.43026 11.872222,-29.38692 2.74324,-4.90539 6.30597,-7.63127 8.94187,-6.84154 0.5364,0.16071 1.04132,0.46433 1.12205,0.67471 0.0807,0.21039 -0.39721,1.177 -1.06209,2.14803 -2.23827,3.26891 -6.01344,11.75728 -9.5003,21.36122 l -0.36675,1.01015 1.0319,-0.81729 c 2.40335,-1.90349 5.62748,-2.49879 7.52649,-1.38971 3.50184,2.04519 3.29412,9.0493 -0.49847,16.8076 -0.64588,1.32124 -1.14409,2.43249 -1.10713,2.46945 0.037,0.037 1.26206,-0.92933 2.72246,-2.14728 2.5696,-2.14302 2.66607,-2.26276 2.99033,-3.71169 0.4607,-2.05865 2.39684,-5.82557 4.27615,-8.31959 4.61673,-6.12688 10.64336,-9.06811 14.53691,-7.09459 1.68591,0.85454 2.24492,1.95811 2.24492,4.43177 0,1.6946 -0.12703,2.25265 -0.86992,3.82144 -1.10189,2.32693 -2.34848,3.84775 -4.39331,5.35973 -2.77607,2.05267 -7.51251,4.048 -9.60902,4.048 -0.56692,0 -0.60581,0.10631 -0.60488,1.65364 0.002,3.96833 3.00577,5.23035 7.35354,3.08995 4.2695,-2.10187 9.26031,-9.30981 11.83861,-17.09784 0.84291,-2.54611 0.91516,-2.97661 0.66577,-3.96702 -0.6813,-2.70567 -0.11065,-6.60914 1.05759,-7.23438 0.85362,-0.45684 2.0895,-0.29366 2.7457,0.36254 0.5453,0.5453 0.61782,0.86343 0.60625,2.65934 -0.0195,3.02913 0.11932,3.10802 4.75468,2.70157 2.38691,-0.2093 2.4452,-0.20062 3.10886,0.46304 0.97605,0.97606 0.86031,1.82724 -0.67407,4.95719 -2.84239,5.79809 -5.34059,13.66312 -4.89888,15.42302 0.0948,0.37753 0.48233,0.88957 0.86128,1.13786 0.65459,0.42891 0.73697,0.42576 1.64944,-0.0631 1.28395,-0.68791 2.64517,-2.7711 4.22575,-6.46702 1.53447,-3.58811 1.97814,-4.95243 3.6137,-11.11251 3.6722,-13.83077 4.67639,-17.21457 6.28147,-21.16666 1.6343,-4.02402 4.68533,-8.4178 7.36844,-10.61126 2.84749,-2.327841 5.77173,-3.42092 9.19341,-3.436494 2.93577,-0.01336 4.73601,0.569415 6.41101,2.075386 2.45662,2.208708 2.94998,5.822278 1.44345,10.572238 -0.86289,2.7206 -2.24775,5.01281 -4.46998,7.39866 -4.28928,4.60512 -11.28813,8.64993 -12.63561,7.30246 -0.65084,-0.65085 0.006,-1.51757 2.03946,-2.69026 5.331,-3.07469 9.80577,-9.35351 11.0968,-15.57057 0.51346,-2.47266 0.29622,-3.92781 -0.72967,-4.88746 -0.96943,-0.90682 -2.20564,-1.14392 -3.8756,-0.74331 -2.58607,0.62039 -4.60783,2.82931 -6.90836,7.5479 -1.83752,3.76891 -3.11801,7.47966 -5.29547,15.34584 -3.51799,12.70887 -5.70336,18.53876 -8.96688,23.92086 -0.74205,1.22379 -1.34918,2.25144 -1.34918,2.28371 0,0.30294 2.96858,0.65064 5.55503,0.65064 5.73697,0 8.70334,-1.19968 11.44886,-4.63021 0.69878,-0.87313 1.38475,-1.62695 1.52439,-1.67515 0.45236,-0.15618 0.83848,1.3763 0.68466,2.71744 -0.43893,3.82718 -4.22247,7.53777 -8.4904,8.32674 -4.19173,0.77489 -10.76051,-0.28083 -13.68982,-2.20019 -0.58796,-0.38525 -0.76344,-0.3522 -2.79593,0.52653 -1.74771,0.75561 -2.62582,0.9672 -4.52435,1.0902 -2.05636,0.13323 -2.50225,0.0811 -3.50857,-0.40995 -0.63406,-0.30941 -1.43139,-0.97423 -1.77186,-1.47737 -0.75983,-1.12288 -1.02169,-3.45959 -0.60528,-5.40125 0.41949,-1.95598 2.33113,-6.94875 4.33993,-11.33492 l 1.7186,-3.75249 -1.66958,-0.1788 c -0.91827,-0.0983 -1.80638,-0.1332 -1.97358,-0.0775 -0.16719,0.0557 -0.81782,1.41376 -1.44583,3.01784 -2.80944,7.17583 -5.62511,11.77189 -9.63274,15.72363 -3.01967,2.97756 -4.93347,4.27524 -7.69198,5.21566 -5.59968,1.909 -10.33404,-0.79873 -10.33404,-5.91038 0,-0.63655 -0.0893,-1.1567 -0.19844,-1.15589 -0.10914,8.1e-4 -1.03188,0.67272 -2.05052,1.49313 -8.53077,6.87062 -12.20711,8.82414 -16.60618,8.82414 -3.115832,0 -5.844689,-2.05007 -6.192917,-4.65248 l -0.138635,-1.03606 -2.830773,2.83142 c -3.273471,3.27422 -4.818437,4.17389 -7.172121,4.17647 -2.794766,0.003 -4.110508,-1.39834 -4.084846,-4.35078 0.01998,-2.29907 0.329078,-3.24585 3.494669,-10.70442 2.666097,-6.28169 3.078906,-7.8147 2.311098,-8.58251 -1.256514,-1.25651 -4.353908,1.43001 -7.018927,6.08786 -1.323731,2.31359 -4.747038,10.12819 -6.182779,14.11384 -1.606758,4.46039 -1.219581,4.07178 -4.271147,4.28694 -2.963417,0.20893 -3.298067,0.1579 -3.298067,-0.5029 0,-0.25625 1.746175,-4.80821 3.880389,-10.11547 3.964047,-9.85761 4.522642,-11.73825 3.691429,-12.4281 -0.701147,-0.5819 -2.114759,-0.12341 -3.517613,1.14091 -2.361501,2.12828 -4.72622,6.85971 -8.673383,17.35403 -1.122042,2.98318 -2.119323,5.49815 -2.216179,5.58882 -0.09686,0.0907 -1.515554,0.24161 -3.152664,0.33542 -2.472575,0.14169 -2.976562,0.10708 -2.976562,-0.20445 z m 52.204281,-8.02417 c 1.70454,-1.17972 3.49561,-3.65462 5.32125,-7.35291 2.88297,-5.84018 3.83757,-9.65422 2.8799,-11.50653 -0.99926,-1.93276 -3.24187,-1.67405 -5.4853,0.63278 -1.45252,1.49358 -3.26125,4.86477 -5.13348,9.56802 -2.16914,5.44913 -2.48037,7.75795 -1.21617,9.02215 0.56158,0.56157 0.84614,0.65407 1.62395,0.52786 0.51869,-0.0842 1.42312,-0.48528 2.00985,-0.89137 z m 25.0811,-11.89331 c 5.00541,-2.60182 8.94368,-8.7025 7.21297,-11.17344 -0.36188,-0.51665 -0.59857,-0.59582 -1.44282,-0.48258 -0.55546,0.0745 -1.38647,0.40358 -1.84669,0.73129 -1.16573,0.83007 -3.77534,4.42665 -4.88329,6.73018 -0.89158,1.85366 -1.97764,4.72162 -1.97764,5.22233 0,0.34239 0.92247,0.0196 2.93747,-1.02778 z m 8.83649,-40.94312 c -3.29213,-2.176072 -8.58593,-7.479274 -10.96896,-10.988443 -2.53888,-3.738663 -3.98,-8.007907 -3.98,-11.790525 0,-4.208325 1.6319,-8.467739 5.01777,-13.096874 5.82343,-7.961748 6.58863,-9.192685 7.45107,-11.986145 0.40205,-1.302213 0.52561,-2.271277 0.447,-3.505729 -0.0775,-1.217631 -0.017,-1.706042 0.2113,-1.706042 0.17597,0 1.47828,1.220391 2.89403,2.711979 6.47732,6.824264 8.72451,11.482994 9.02947,18.71927 0.11319,2.685864 0.0392,3.790201 -0.39401,5.877376 -0.73501,3.541576 -1.94186,5.88186 -5.3942,10.460243 -1.61869,2.146653 -3.34803,4.753788 -3.84298,5.793635 -1.55768,3.27257 -1.45104,6.036817 0.33777,8.754775 1.32275,2.00981 1.22553,2.1008 -0.80826,0.75648 z m -4.64474,-8.998018 c -1.92357,-5.830707 -1.22323,-12.190463 2.34996,-21.340104 2.01702,-5.16485 3.4205,-10.353796 2.67598,-9.893659 -0.1369,0.08461 -0.24891,0.329211 -0.24891,0.543558 0,0.214347 -0.85686,1.903961 -1.90412,3.754697 -5.41109,9.562507 -6.56673,12.635616 -6.55941,17.442883 0.004,2.398404 0.41946,4.149585 1.57438,6.630589 0.83503,1.793814 2.43839,4.600244 2.55919,4.479451 0.0358,-0.03578 -0.1654,-0.763619 -0.44707,-1.617415 z"
       id="path1" /></g></svg>
