<?xml version="1.0" encoding="UTF-8" standalone="no"?>
<!-- Created with Inkscape (http://www.inkscape.org/) -->

<svg
   width="209.90341mm"
   height="198.3985mm"
   viewBox="0 0 209.90341 198.3985"
   version="1.1"
   id="svg1"
   xml:space="preserve"
   xmlns="http://www.w3.org/2000/svg"
   xmlns:svg="http://www.w3.org/2000/svg"><defs
     id="defs1" /><g
     id="layer1"
     transform="translate(0,-19.892404)"><path
       style="fill:#ffffff;fill-opacity:1;stroke:#000000;stroke-opacity:1"
       d="m 59.024215,217.84363 c -1.35191,-0.48176 -2.446779,-1.22875 -2.446779,-1.66935 0,-0.11962 0.283435,-0.40319 0.629856,-0.63018 0.583635,-0.38241 0.702799,-0.36966 1.623866,0.17379 1.151085,0.67915 3.249886,0.8185 3.922914,0.26046 0.627987,-0.5207 0.546821,-1.5414 -0.157365,-1.97896 -0.327422,-0.20344 -1.178845,-0.51009 -1.892051,-0.68143 -2.409245,-0.57879 -3.598053,-1.63416 -3.598053,-3.19419 0,-0.89708 0.755155,-2.10087 1.666491,-2.65655 1.559034,-0.9506 4.995772,-0.54559 6.039231,0.7117 0.261261,0.3148 0.193262,0.51613 -0.361796,1.07119 l -0.683525,0.68352 -0.720049,-0.56639 c -1.279299,-1.00629 -3.559102,-0.62123 -3.559102,0.60115 0,0.84994 0.386601,1.10553 2.460111,1.62638 2.168659,0.54474 2.98666,1.1449 3.388491,2.4861 0.260058,0.868 0.231709,1.16747 -0.192069,2.02896 -0.94564,1.92238 -3.533593,2.65553 -6.120171,1.7338 z m 66.699355,0.10257 c -1.68208,-0.52606 -2.73419,-1.41724 -3.42522,-2.90132 -1.42582,-3.06209 -0.17628,-6.41528 2.86381,-7.6852 1.35649,-0.56664 4.04466,-0.5212 5.36631,0.0907 1.23183,0.57032 2.3612,1.69784 2.76129,2.75676 0.39578,1.04752 0.35008,3.73806 -0.081,4.76983 -0.54398,1.30194 -2.37676,2.73915 -3.91328,3.06867 -1.62844,0.34924 -2.18696,0.33369 -3.57188,-0.0994 z m 4.09322,-2.27296 c 0.48171,-0.29369 1.04724,-0.94426 1.25677,-1.44573 1.4431,-3.45382 -1.59189,-6.48881 -5.04571,-5.0457 -1.98743,0.83039 -2.69945,4.01708 -1.27564,5.70917 0.3883,0.46148 0.95385,0.93932 1.25676,1.06186 1.0264,0.41522 2.89298,0.27816 3.80782,-0.2796 z m 42.73803,2.28766 c -0.60541,-0.19742 -1.47722,-0.62704 -1.9374,-0.9547 l -0.83665,-0.59576 0.71933,-0.75083 0.71935,-0.75083 0.65728,0.51701 c 0.85569,0.67309 2.50386,1.10851 3.3716,0.89072 0.37761,-0.0948 0.87401,-0.4584 1.10312,-0.80806 0.38327,-0.58495 0.3787,-0.67756 -0.0572,-1.15924 -0.26057,-0.28793 -0.96087,-0.64625 -1.55623,-0.79628 -1.76717,-0.44531 -3.26865,-1.05035 -3.60133,-1.45121 -0.58824,-0.70878 -0.77946,-2.28098 -0.39062,-3.21161 0.52633,-1.25968 1.79393,-1.93915 3.61987,-1.94035 1.7015,-0.001 2.7307,0.317 3.57052,1.10364 l 0.57674,0.54021 -0.69459,0.59745 c -0.68746,0.59133 -0.70287,0.59241 -1.50277,0.10462 -1.58061,-0.96388 -3.73046,-0.45871 -3.5453,0.83307 0.0954,0.66578 0.73475,0.99322 3.118,1.59695 1.55805,0.39469 2.92639,1.74867 2.92639,2.89569 0,1.18119 -0.66485,2.45589 -1.55527,2.98188 -1.04875,0.61951 -3.36246,0.79538 -4.70483,0.35763 z M 27.473271,212.50502 v -5.55625 h 1.058334 1.058333 v 4.63021 4.6302 h 2.778125 2.778125 v 0.92605 0.92604 h -3.836459 -3.836458 z m 13.229166,5.30082 c 0,-0.15723 0.977197,-2.66438 2.171548,-5.57147 l 2.171548,-5.2856 h 1.094789 1.09479 l 1.936527,4.69635 c 1.06509,2.583 2.097149,5.08331 2.293463,5.55625 l 0.356936,0.8599 h -1.172292 c -1.145632,0 -1.182634,-0.0271 -1.626997,-1.19063 l -0.454704,-1.19062 h -2.422918 -2.422919 l -0.408475,1.12448 c -0.38229,1.05239 -0.47908,1.12969 -1.509885,1.20584 -0.662734,0.0489 -1.101411,-0.0325 -1.101411,-0.2045 z m 7.14375,-3.82301 c 0,-0.25813 -1.652927,-4.41096 -1.726323,-4.33723 -0.04451,0.0447 -0.376551,0.8552 -0.737863,1.80109 -0.361313,0.94588 -0.741326,1.92815 -0.844473,2.18281 -0.16735,0.41317 6.49e-4,0.46302 1.56056,0.46302 0.961454,0 1.748099,-0.0494 1.748099,-0.10969 z m 23.812504,-1.47781 v -5.55625 h 3.96874 3.96875 v 0.92604 0.92604 h -2.91041 -2.91042 v 1.45521 1.45521 h 2.39802 2.39801 l -0.0829,0.85989 -0.0829,0.8599 -2.31511,0.0764 -2.3151,0.0764 v 1.31262 1.31261 h 3.04271 3.04271 v 0.92605 0.92604 h -4.10104 -4.10104 z m 14.81666,-0.0279 V 206.893 l 3.10885,0.0979 c 3.41651,0.10758 4.37683,0.44445 5.18966,1.82046 0.90939,1.53947 0.23277,4.44387 -1.1365,4.87846 -0.74916,0.23777 -0.70049,0.46843 0.46483,2.20312 0.55674,0.82876 1.09955,1.65567 1.20624,1.83757 0.14447,0.24632 -0.13076,0.32711 -1.0784,0.31655 l -1.27239,-0.0142 -1.24966,-1.9702 c -1.16829,-1.8419 -1.31042,-1.97019 -2.18281,-1.97019 h -0.93315 v 1.98437 1.98438 h -1.05834 -1.05833 z m 6.02655,-0.64859 c 0.75132,-0.52625 0.77333,-1.71967 0.0439,-2.3798 -0.37503,-0.3394 -1.07396,-0.52618 -2.24895,-0.601 l -1.70482,-0.10855 v 1.75061 1.75062 h 1.66092 c 1.07504,0 1.86835,-0.14529 2.24896,-0.41188 z m 11.171369,5.86967 c 0,-0.19966 -0.65384,-2.55115 -1.45297,-5.22552 -0.79914,-2.67436 -1.45398,-5.01131 -1.45521,-5.19321 -0.003,-0.43251 1.75125,-0.43973 2.01788,-0.008 0.1096,0.17733 0.69948,2.05256 1.31086,4.16719 0.61138,2.11462 1.173,3.66617 1.24804,3.44789 0.075,-0.21828 0.64218,-2.09958 1.26031,-4.18066 l 1.12389,-3.78377 0.95015,0.0796 c 0.91487,0.0767 0.97189,0.14349 1.53497,1.7994 0.32164,0.94589 0.90523,2.79136 1.29688,4.10104 0.6041,2.02015 0.74315,2.28095 0.91702,1.71979 0.11271,-0.3638 0.69361,-2.23903 1.29087,-4.16718 l 1.08593,-3.50573 h 1.05027 c 0.57765,0 1.05027,0.0734 1.05027,0.16312 0,0.0897 -0.77979,2.59003 -1.73287,5.55625 l -1.73288,5.39313 h -1.16634 -1.16634 l -0.55503,-1.91823 c -0.30527,-1.05503 -0.78656,-2.62596 -1.06954,-3.49096 -0.28298,-0.865 -0.5145,-1.78773 -0.5145,-2.05052 0,-0.26279 -0.11906,-0.47779 -0.26459,-0.47779 -0.14552,0 -0.26458,0.14126 -0.26458,0.3139 0,0.17265 -0.50407,1.95859 -1.12016,3.96875 l -1.12016,3.65485 h -1.26109 c -0.89233,0 -1.26108,-0.10616 -1.26108,-0.36304 z m 36.51249,-5.21598 v -5.57902 l 2.97656,0.0892 c 3.37402,0.10113 4.21301,0.39443 5.17308,1.8084 0.86788,1.27821 0.71248,3.13016 -0.35628,4.2457 -0.41174,0.42976 -0.90493,0.78138 -1.09599,0.78138 -0.49349,0 -0.45264,0.11457 0.54221,1.52075 0.48926,0.69156 1.09828,1.5848 1.35334,1.98498 l 0.46378,0.72761 -1.28721,-5.2e-4 -1.2872,-5.1e-4 -1.26372,-1.98386 c -1.17558,-1.84549 -1.32783,-1.98386 -2.18281,-1.98386 h -0.91909 v 1.98437 1.98438 h -1.05834 -1.05833 z m 6.08542,-0.77098 c 0.70784,-0.70785 0.66711,-1.47361 -0.12027,-2.26099 -0.54629,-0.54628 -0.90347,-0.64943 -2.24896,-0.64943 h -1.59952 v 1.71979 1.7198 h 1.71979 c 1.36701,0 1.82834,-0.10855 2.24896,-0.52917 z m 9.32119,0.85989 0.0715,-5.4901 h 1.05834 1.05833 l 0.13229,2.19074 0.13229,2.19075 2.24312,-2.25689 c 2.21932,-2.23295 2.25716,-2.25689 3.56636,-2.25689 h 1.32324 l -2.31346,2.32423 -2.31345,2.32423 2.25282,3.11297 c 1.23906,1.71213 2.25283,3.16654 2.25283,3.23202 0,0.0655 -0.57117,0.11905 -1.26928,0.11905 h -1.26927 l -1.69478,-2.38125 c -0.93213,-1.30969 -1.77125,-2.38125 -1.86472,-2.38125 -0.0935,0 -0.36698,0.21773 -0.60782,0.48385 -0.32176,0.35555 -0.43788,0.987 -0.43788,2.38125 v 1.8974 h -1.19599 -1.19599 z M 0.05998957,193.34267 c -0.06001999604,-0.15649 -0.07807,-5.52328 -0.04011,-11.92619 l 0.06902,-11.64167 H 8.0263986 15.963899 l 0.07774,1.91823 0.07774,1.91823 H 10.286955 4.4545306 v 2.91042 2.91041 h 4.762499 4.7625004 v 1.98438 1.98437 H 9.2170296 4.4545306 v 3.04271 3.04271 h 5.9090274 c 3.249965,0 5.958637,0.0493 6.019271,0.10963 0.06063,0.0603 0.05071,0.98304 -0.02205,2.05052 l -0.132292,1.94089 -8.0296794,0.0199 c -5.501589,0.0137 -8.06403903,-0.0696 -8.13881103,-0.26458 z m 23.01474543,-0.0104 c -0.05782,-0.15075 -0.07407,-5.51285 -0.03611,-11.91576 l 0.06902,-11.64167 2.441499,-0.076 2.441498,-0.076 3.54753,7.08745 3.54753,7.08746 3.529145,-7.08647 3.529145,-7.08647 2.520367,0.075 2.520368,0.075 v 11.8938 11.89381 l -1.799365,0.0198 c -0.98965,0.0109 -1.92505,-0.0579 -2.078667,-0.15285 -0.187618,-0.11596 -0.26925,-2.94108 -0.24868,-8.60628 l 0.03062,-8.43365 -1.349457,2.51354 c -0.742201,1.38244 -2.351322,4.50784 -3.575822,6.94531 -2.132071,4.24407 -2.259781,4.43177 -3.015325,4.43177 -1.00359,0 -1.219802,-0.33968 -4.929524,-7.74448 -1.582642,-3.15904 -2.937063,-5.74504 -3.009823,-5.74666 -0.07276,-0.002 -0.09772,3.74759 -0.05546,8.33159 0.04226,4.584 -0.01727,8.34244 -0.132291,8.35209 -1.798499,0.15087 -3.862666,0.0775 -3.9462,-0.14032 z m 31.507308,0.15586 c -0.0667,-0.0667 -0.121273,-5.47055 -0.121273,-12.00856 v -11.88728 l 6.01927,0.11157 c 6.388738,0.11842 7.318166,0.27877 9.053894,1.56205 1.241464,0.91785 2.124827,2.93245 2.124337,4.84474 -5.1e-4,1.99008 -0.55739,3.16069 -2.036162,4.28019 l -1.110535,0.84073 0.759324,0.31452 c 3.926403,1.62637 4.185713,7.99857 0.428901,10.53948 -1.608146,1.08767 -3.375251,1.35953 -9.389599,1.44456 -3.083787,0.0436 -5.661458,0.0247 -5.728157,-0.042 z m 11.010873,-4.0029 c 1.33047,-0.3696 2.132286,-1.32262 2.289998,-2.72184 0.157601,-1.39823 -0.195904,-2.15235 -1.334343,-2.84651 -0.722483,-0.44053 -1.34423,-0.51416 -4.348739,-0.51501 l -3.505729,-9.9e-4 v 2.99861 c 0,1.64924 0.07938,3.07799 0.176389,3.175 0.275545,0.27555 5.666886,0.20396 6.722424,-0.0893 z m 0.885896,-10.82682 c 0.552519,-0.51969 0.681957,-0.88708 0.681957,-1.93562 0,-2.62673 -0.822381,-3.11149 -5.278527,-3.11149 h -3.188139 v 2.93092 2.93091 l 3.551376,-0.0866 c 3.334488,-0.0814 3.593024,-0.12582 4.233333,-0.72808 z m 12.299469,14.53206 c -0.0133,-0.21829 -0.011,-5.45703 0.005,-11.64167 0.0161,-6.18464 0.0269,-11.39537 0.0242,-11.5794 -0.004,-0.26401 1.68358,-0.31983 7.9986,-0.26458 l 8.00364,0.07 v 1.85209 1.85208 l -5.88698,0.0712 -5.88698,0.0712 v 2.90536 2.90535 h 4.7625 4.7625 v 1.98438 1.98437 h -4.7625 -4.7625 v 3.03774 3.03774 l 6.01927,0.0711 6.01927,0.0711 0.0777,1.91823 c 0.0685,1.69084 0.0215,1.92078 -0.39687,1.93971 -0.26104,0.0118 -3.95719,0.0416 -8.21367,0.0661 -6.71316,0.0387 -7.74226,-0.008 -7.76322,-0.3522 z m 22.844469,0.33996 c -0.25741,-0.093 -0.33073,-2.57106 -0.33073,-11.17686 0,-6.08155 0.0744,-11.42944 0.16536,-11.8842 l 0.16537,-0.82682 h 4.37702 c 6.32061,0 8.91729,0.5574 10.96263,2.35324 2.49654,2.192 2.99444,7.28469 0.98359,10.06059 -0.42847,0.59149 -1.43388,1.445 -2.23422,1.89669 -0.9111,0.51419 -1.38554,0.93546 -1.2689,1.12672 0.10245,0.16801 1.35261,2.12751 2.77813,4.35446 1.42552,2.22695 2.59189,4.07241 2.59194,4.10104 5e-5,0.0286 -1.14816,0.0368 -2.55156,0.0181 l -2.55165,-0.034 -2.56486,-4.19937 -2.56486,-4.19937 -1.91341,-0.0781 -1.91341,-0.0781 0.0845,4.24565 c 0.0465,2.33511 0.025,4.25775 -0.0478,4.27252 -0.51671,0.10494 -3.90154,0.14376 -4.16719,0.0478 z m 11.52353,-12.99073 c 1.60811,-0.9172 2.12741,-3.47951 1.03429,-5.10336 -0.95772,-1.42273 -1.76549,-1.68428 -5.21564,-1.68879 l -3.04271,-0.004 -0.0453,3.56463 c -0.025,1.96054 -0.007,3.62742 0.0401,3.70416 0.17817,0.29079 6.63037,-0.13106 7.22928,-0.47265 z m 15.46396,12.97221 -2.71198,-0.0754 v -11.897 -11.89699 h 2.11667 2.11667 v 9.9164 9.91639 l 5.35781,0.0716 5.35781,0.0716 0.0777,1.91823 c 0.0577,1.42344 -0.0106,1.92463 -0.26458,1.94303 -1.01605,0.0736 -9.72312,0.0968 -12.05013,0.0321 z m 17.81451,0.008 c -0.0845,-0.0845 -0.15357,-5.49329 -0.15357,-12.01961 v -11.86603 l 8.00364,0.07 8.00365,0.07 0.0777,1.91823 0.0777,1.91823 h -5.96472 -5.96471 v 2.90431 2.90431 l 4.69635,0.0722 4.69636,0.0723 0.0777,1.91822 0.0777,1.91823 h -4.77409 -4.77409 v 3.04271 3.04271 h 6.08542 6.08541 v 1.98437 c 0,1.40499 -0.0966,1.98773 -0.33073,1.99586 -3.59103,0.12467 -15.80773,0.16603 -15.91986,0.0539 z m 20.27866,-0.22164 c 0.0401,-0.15871 2.09704,-5.54612 4.57089,-11.97203 l 4.49792,-11.68347 2.1735,-3.7e-4 c 1.90713,-3.2e-4 2.20841,0.0649 2.45836,0.53188 0.27414,0.51224 3.38607,8.46152 7.18132,18.34436 0.99722,2.59677 1.76257,4.80321 1.70077,4.9032 -0.16367,0.26482 -4.38176,0.14634 -4.63388,-0.13016 -0.11736,-0.12871 -0.60305,-1.33797 -1.07929,-2.68724 l -0.8659,-2.45322 -4.7564,0.072 -4.7564,0.072 -0.92472,2.57969 c -0.77306,2.15661 -1.01729,2.58136 -1.48917,2.58986 -0.31044,0.006 -1.37119,0.0354 -2.35721,0.0661 -1.18739,0.0371 -1.76812,-0.0415 -1.71979,-0.23258 z m 14.63054,-9.30259 c -0.10089,-0.25467 -0.84292,-2.27873 -1.64896,-4.49792 -0.80604,-2.21919 -1.55875,-4.0349 -1.67267,-4.0349 -0.11393,0 -0.44549,0.68461 -0.7368,1.52136 -0.2913,0.83674 -1.01469,2.8608 -1.60751,4.49791 l -1.07786,2.97657 h 3.46361 c 3.19218,0 3.44924,-0.0363 3.28019,-0.46302 z m 13.19053,9.33543 c -0.0577,-0.1504 -0.0738,-5.51221 -0.0359,-11.91512 l 0.069,-11.64167 h 7.67292 7.67291 v 1.85209 1.85208 l -5.4901,0.0715 -5.4901,0.0715 v 3.03734 3.03734 h 4.50904 4.50905 l -0.0773,2.05052 -0.0773,2.05052 -4.42583,0.0725 -4.42583,0.0725 -0.0721,4.80856 -0.0721,4.80856 -2.0808,0.0226 c -1.20926,0.0131 -2.12473,-0.0919 -2.18568,-0.25087 z m -93.9984,-36.12449 c -2.073399,-1.14616 -7.988749,-4.6156 -20.533019,-12.04291 -7.71853,-4.57006 -18.287703,-10.76998 -30.294791,-17.77106 -3.56526,-2.07882 -6.800026,-4.12969 -7.188368,-4.55749 -0.499215,-0.54992 -0.755888,-1.19059 -0.876095,-2.18678 -0.09351,-0.77494 -0.132963,-15.51789 -0.08767,-32.762115 0.07927,-30.18104 0.101011,-31.38395 0.58166,-32.17788 0.318808,-0.52661 1.466599,-1.39665 3.175,-2.40669 1.471626,-0.87005 4.937872,-2.92676 7.702768,-4.57046 2.764895,-1.6437 10.265832,-6.05306 16.668749,-9.79857 6.402917,-3.74552 15.749327,-9.22736 20.769787,-12.18186 11.907609,-7.00753 11.619389,-6.85207 12.714169,-6.85765 0.98522,-0.005 0.76912,-0.12168 11.75978,6.34817 2.91042,1.71326 8.2087,4.80994 11.77396,6.88149 9.6374,5.59971 34.42225,20.31351 36.5899,21.722 0.53327,0.3465 1.09119,0.97519 1.23984,1.39709 0.17833,0.50616 0.27027,11.81833 0.27027,33.25659 v 32.489515 l -0.59531,0.66465 c -0.32743,0.36556 -5.47688,3.54582 -11.44323,7.06725 -5.96637,3.52143 -15.37229,9.0753 -20.9021,12.34193 -24.11987,14.24839 -27.2219,16.01493 -28.3104,16.12212 -0.85849,0.0846 -1.4278,-0.10001 -3.01489,-0.97734 z m 10.91191,-10.75739 c 4.09685,-2.42433 9.47287,-5.59679 11.94674,-7.04992 2.47384,-1.45312 9.31995,-5.51941 15.21353,-9.0362 5.89359,-3.51678 12.21577,-7.25418 14.04929,-8.30533 1.8335,-1.05115 3.59044,-2.15041 3.90428,-2.4428 1.43473,-1.33664 1.34231,0.52198 1.51265,-30.420665 0.18032,-32.75218 0.39698,-29.74386 -2.26829,-31.49514 -1.79942,-1.18235 -22.48305,-13.35945 -33.20521,-19.54895 -4.36563,-2.52011 -10.39378,-6.05264 -13.39588,-7.85006 -3.00211,-1.79743 -5.68102,-3.2678 -5.95313,-3.26749 -0.62365,7.2e-4 -2.89312,1.19043 -6.399239,3.35465 -1.50123,0.92665 -4.2992,2.58966 -6.21771,3.69557 -1.91852,1.10591 -7.77446,4.53983 -13.01321,7.63094 -5.23875,3.09111 -13.513594,7.96656 -18.388541,10.83434 -4.874948,2.86778 -9.28026,5.62377 -9.789583,6.12441 -0.90406,0.88866 -0.929523,0.97142 -1.072694,3.48646 -0.08066,1.4169 -0.17621,14.38199 -0.212335,28.81132 -0.07099,28.355115 -0.119546,27.302495 1.317076,28.551785 0.346176,0.30104 4.498942,2.81321 9.228369,5.58261 4.729427,2.7694 13.540048,7.92897 19.579168,11.46571 6.03911,3.53675 13.94219,8.19809 17.5624,10.35854 4.526669,2.70141 6.827539,3.92809 7.367849,3.92809 0.54165,0 3.09919,-1.36903 8.23447,-4.40787 z m -5.05348,-56.754975 c 0.0442,-30.95557 0.15674,-46.90526 0.33147,-46.96341 0.14551,-0.0484 1.93145,0.90478 3.96875,2.11826 l 3.70416,2.20633 0.0671,37.40258 c 0.0405,22.618575 0.16437,37.499885 0.31321,37.648745 0.15182,0.15182 0.73453,-0.0343 1.52045,-0.48576 7.65848,-4.3988 20.42891,-11.95113 20.80978,-12.30673 0.42613,-0.39785 0.49084,-0.95073 0.52917,-4.52076 l 0.0437,-4.06748 3.67966,-2.198885 c 2.0238,-1.20938 3.8395,-2.13753 4.03489,-2.06255 0.54001,0.20722 0.51912,16.469965 -0.0222,17.242745 -0.20757,0.29634 -1.36842,1.11687 -2.57969,1.82339 -1.21126,0.70653 -5.05979,2.97241 -8.5523,5.0353 -3.4925,2.06289 -10.27906,6.04829 -15.08123,8.85645 -4.80219,2.80815 -9.51209,5.56505 -10.46645,6.12643 -0.95434,0.56138 -1.87741,1.0207 -2.05125,1.0207 -0.2441,0 -0.30083,-10.67364 -0.24918,-46.875355 z M 86.475351,128.9776 c -6.03911,-3.58092 -14.2522,-8.4425 -18.251303,-10.80352 -7.139016,-4.21477 -7.27489,-4.31101 -7.47994,-5.29792 -0.114864,-0.55284 -0.176621,-11.69674 -0.137237,-24.764215 0.07042,-23.36604 0.08036,-23.76742 0.600774,-24.26536 0.291041,-0.27848 5.291666,-3.30072 11.112496,-6.71608 5.82084,-3.41537 13.94708,-8.19142 18.05833,-10.61345 4.11124,-2.42203 7.59382,-4.4037 7.73906,-4.4037 0.17114,0 0.26407,3.59183 0.26407,10.20681 v 10.20681 l -0.7276,0.71962 c -0.98559,0.97476 -6.85882,4.35145 -7.20093,4.14002 -0.17312,-0.107 -0.27355,-2.05173 -0.27355,-5.29722 0,-3.29127 -0.0994,-5.18955 -0.2774,-5.29958 -0.29247,-0.18076 -1.83134,0.6709 -13.34864,7.38756 -3.92907,2.29134 -7.292582,4.35925 -7.474483,4.59535 -0.495248,0.64281 -0.473601,14.69684 0.02327,15.10921 0.242584,0.20133 3.552733,0.31562 10.517183,0.36313 l 10.16319,0.0693 v 3.83646 3.83646 l -10.16319,0.0693 c -6.96445,0.0475 -10.274599,0.1618 -10.517183,0.36312 -0.498024,0.41333 -0.519829,16.053875 -0.02327,16.693425 0.326629,0.42069 7.105363,4.49564 21.450583,12.89477 5.50853,3.22524 7.42499,4.47708 7.61364,4.97329 0.13867,0.36471 0.21926,2.40191 0.17911,4.5271 -0.0604,3.19462 -0.14177,3.87404 -0.4699,3.922 -0.21828,0.0319 -5.33796,-2.87183 -11.37708,-6.45275 z"
       id="path1" /></g></svg>
