<?xml version="1.0" encoding="UTF-8" standalone="no"?>
<!-- Created with Inkscape (http://www.inkscape.org/) -->

<svg
   width="210.90392mm"
   height="199.32838mm"
   viewBox="0 0 210.90391 199.32838"
   version="1.1"
   id="svg1"
   xml:space="preserve"
   inkscape:export-filename="logo-black.svg"
   inkscape:export-xdpi="96"
   inkscape:export-ydpi="96"
   xmlns:inkscape="http://www.inkscape.org/namespaces/inkscape"
   xmlns:sodipodi="http://sodipodi.sourceforge.net/DTD/sodipodi-0.dtd"
   xmlns="http://www.w3.org/2000/svg"
   xmlns:svg="http://www.w3.org/2000/svg"><sodipodi:namedview
     id="namedview1"
     pagecolor="#ffffff"
     bordercolor="#000000"
     borderopacity="0.25"
     inkscape:showpageshadow="2"
     inkscape:pageopacity="0.0"
     inkscape:pagecheckerboard="0"
     inkscape:deskcolor="#d1d1d1"
     inkscape:document-units="mm"><inkscape:page
       x="2.3518165e-21"
       y="0"
       width="210.90392"
       height="199.32838"
       id="page2"
       margin="0"
       bleed="0" /></sodipodi:namedview><defs
     id="defs1" /><g
     inkscape:label="Layer 1"
     inkscape:groupmode="layer"
     id="layer1"
     transform="translate(-27.810417,-49.50643)"><path
       style="fill:#ffffff;fill-opacity:1;stroke:#000000;stroke-opacity:1"
       d="m 87.335069,247.89777 c -1.35191,-0.48176 -2.446778,-1.22875 -2.446778,-1.66935 0,-0.11962 0.283435,-0.40319 0.629855,-0.63018 0.583635,-0.38241 0.702799,-0.36966 1.623866,0.17378 1.151085,0.67916 3.249886,0.81851 3.922914,0.26047 0.627987,-0.5207 0.546822,-1.5414 -0.157365,-1.97896 -0.327422,-0.20345 -1.178845,-0.51009 -1.892051,-0.68143 -2.409245,-0.57879 -3.598053,-1.63416 -3.598053,-3.19419 0,-0.89708 0.755155,-2.10087 1.666491,-2.65655 1.554189,-0.94764 4.995511,-0.5459 6.03309,0.7043 0.252081,0.30374 0.192835,0.51092 -0.294419,1.02958 l -0.610005,0.64932 -0.849121,-0.52478 c -1.185517,-0.73269 -2.880247,-0.70378 -3.413992,0.0582 -0.669849,0.95635 -0.02342,1.57245 2.338223,2.22852 2.325909,0.64615 2.952884,1.11101 3.368238,2.49734 0.249858,0.83395 0.218318,1.14822 -0.200722,2.00008 -0.94564,1.92238 -3.533593,2.65552 -6.120171,1.7338 z m 66.699361,0.11727 c -1.69661,-0.55327 -2.73777,-1.43965 -3.42522,-2.91602 -1.04218,-2.23819 -0.73395,-4.48718 0.85621,-6.2473 1.26989,-1.40561 2.77069,-1.9369 5.09966,-1.8053 1.53197,0.0866 2.04782,0.24147 2.96552,0.89053 1.67509,1.18476 2.16817,2.00307 2.2993,3.81585 0.15966,2.20733 -0.10698,3.31367 -1.06034,4.39949 -1.59557,1.81725 -4.45204,2.60728 -6.73513,1.86275 z m 4.09322,-2.28767 c 0.4817,-0.29368 1.04724,-0.94425 1.25677,-1.44572 1.4431,-3.45382 -1.59188,-6.48881 -5.04571,-5.04571 -1.98742,0.8304 -2.69945,4.01709 -1.27565,5.70918 0.38832,0.46148 0.95386,0.93932 1.25677,1.06186 1.02639,0.41522 2.89298,0.27816 3.80782,-0.27961 z m 42.73803,2.27297 c -0.60541,-0.18934 -1.47723,-0.61234 -1.9374,-0.94001 l -0.83666,-0.59575 0.70599,-0.7369 0.706,-0.73689 0.9042,0.6136 c 1.71228,1.16199 3.67218,1.10689 4.32971,-0.12171 0.55355,-1.03431 0.0581,-1.41323 -2.9291,-2.24022 -2.47715,-0.68579 -3.53983,-2.36084 -2.73783,-4.31553 0.50923,-1.24112 1.78576,-1.92184 3.6062,-1.92303 1.7015,-10e-4 2.7307,0.317 3.57052,1.10363 l 0.57674,0.54022 -0.69459,0.59745 c -0.68746,0.59133 -0.70287,0.59241 -1.50277,0.10461 -1.4857,-0.90599 -3.58632,-0.51195 -3.58632,0.67272 0,0.83419 0.38352,1.09338 2.21777,1.49877 2.73574,0.60463 3.99421,1.86726 3.76693,3.77936 -0.1577,1.32679 -1.20829,2.41722 -2.68786,2.78979 -1.43564,0.3615 -2.08113,0.34474 -3.47153,-0.0901 z M 55.784125,242.55916 v -5.55625 h 1.058334 1.058333 v 4.63021 4.6302 h 2.778125 2.778125 v 0.92605 0.92604 h -3.836458 -3.836459 z m 13.284746,5.11016 c 0.06939,-0.26397 1.065651,-2.77191 2.213922,-5.57318 l 2.087768,-5.09323 h 1.075689 1.075689 l 1.950888,4.69635 c 1.072988,2.583 2.110452,5.08331 2.305476,5.55625 l 0.354589,0.8599 H 78.9606 c -1.145632,0 -1.182634,-0.0271 -1.626997,-1.19063 L 76.8789,245.73416 h -2.422919 -2.422918 l -0.408476,1.12448 c -0.385232,1.06049 -0.473154,1.1292 -1.545173,1.20756 -0.988227,0.0722 -1.12022,0.0204 -1.010543,-0.39688 z m 7.08817,-3.63235 c 0,-0.26968 -1.654663,-4.40926 -1.731677,-4.33225 -0.08669,0.0867 -1.707906,4.23465 -1.707906,4.36976 0,0.0397 0.773906,0.0722 1.719791,0.0722 0.945886,0 1.719792,-0.0494 1.719792,-0.10969 z m 23.812499,-1.47781 v -5.55625 h 3.96875 3.96875 v 0.92604 0.92604 h -2.91042 -2.91041 v 1.45521 1.45521 h 2.39801 2.39801 l -0.0829,0.85989 -0.0829,0.8599 -2.3151,0.0764 -2.3151,0.0764 v 1.31262 1.31261 h 3.0427 3.04271 v 0.92605 0.92605 h -4.10104 -4.101041 z m 14.81667,-0.0279 v -5.58409 l 3.10885,0.0979 c 3.4165,0.10758 4.37683,0.44445 5.18966,1.82046 0.90939,1.53947 0.23276,4.44387 -1.13651,4.87846 -0.74915,0.23777 -0.70049,0.46843 0.46484,2.20312 0.55674,0.82876 1.09955,1.65567 1.20624,1.83757 0.14338,0.24445 -0.11859,0.33073 -1.0042,0.33073 -1.19565,0 -1.201,-0.004 -2.53722,-1.98438 -1.23544,-1.83085 -1.41006,-1.98437 -2.25702,-1.98437 h -0.91798 v 1.98437 1.98438 h -1.05833 -1.05833 z m 6.02654,-0.64859 c 0.75133,-0.52625 0.77334,-1.71967 0.0439,-2.3798 -0.37504,-0.33941 -1.07397,-0.52618 -2.24896,-0.601 l -1.70482,-0.10856 v 1.75062 1.75061 h 1.66092 c 1.07505,0 1.86835,-0.14528 2.24896,-0.41187 z m 11.17137,5.86555 c 0,-0.20194 -0.65484,-2.57005 -1.45521,-5.26247 -0.80036,-2.69243 -1.4552,-5.02752 -1.4552,-5.1891 0,-0.39963 1.77095,-0.37452 2.02012,0.0286 0.10959,0.17733 0.69948,2.05256 1.31086,4.16718 0.61138,2.11463 1.17455,3.66618 1.2515,3.4479 0.0769,-0.21828 0.51824,-1.70657 0.98066,-3.30729 1.25711,-4.3517 1.39993,-4.63021 2.37436,-4.63021 0.97442,0 1.11724,0.27851 2.37435,4.63021 0.46242,1.60072 0.90513,3.08901 0.9838,3.30729 0.16345,0.45352 0.092,0.64394 1.66413,-4.43177 l 1.08589,-3.50573 h 1.06478 c 0.97974,0 1.0508,0.0476 0.88962,0.59532 -0.0963,0.32741 -0.89529,2.82773 -1.77544,5.55625 l -1.60027,4.96094 h -1.12704 -1.12703 l -0.5453,-1.79528 c -0.29992,-0.98741 -0.81753,-2.77244 -1.15025,-3.96675 -0.53698,-1.92749 -1.00199,-2.78382 -1.00174,-1.84474 5e-5,0.1819 -0.50597,1.96654 -1.12448,3.96588 l -1.12457,3.63515 -1.25677,0.003 c -0.89691,0.002 -1.25677,-0.10226 -1.25677,-0.36429 z m 36.5125,-5.21186 v -5.57902 l 2.97656,0.0892 c 3.36152,0.10077 4.2175,0.39688 5.1495,1.78139 1.23613,1.8363 0.46036,4.1826 -1.72809,5.22662 -0.0464,0.0221 0.32416,0.61743 0.82343,1.32292 0.49926,0.70548 1.11645,1.61011 1.37152,2.01029 l 0.46377,0.72761 -1.2872,-5.2e-4 -1.2872,-5.1e-4 -1.26372,-1.98386 c -1.17558,-1.84549 -1.32783,-1.98386 -2.18281,-1.98386 h -0.91909 v 1.98437 1.98438 h -1.05834 -1.05833 z m 6.08542,-0.77098 c 0.70784,-0.70785 0.66711,-1.47361 -0.12027,-2.26099 -0.54629,-0.54628 -0.90347,-0.64943 -2.24896,-0.64943 h -1.59952 v 1.71979 1.71979 h 1.71979 c 1.36701,0 1.82834,-0.10854 2.24896,-0.52916 z m 9.32119,0.85989 0.0715,-5.4901 h 1.05834 1.05833 l 0.13229,2.19074 0.13229,2.19074 2.24312,-2.25688 c 2.21932,-2.23295 2.25716,-2.25689 3.56636,-2.25689 h 1.32324 l -2.30772,2.31846 -2.30772,2.31846 2.24709,3.14766 c 1.2359,1.73121 2.24709,3.18822 2.24709,3.23779 0,0.0496 -0.56554,0.0882 -1.25677,0.0858 l -1.25677,-0.004 -1.70252,-2.37698 c -0.93639,-1.30733 -1.78114,-2.37697 -1.87723,-2.37697 -0.0961,0 -0.37174,0.21773 -0.61258,0.48385 -0.32176,0.35555 -0.43788,0.987 -0.43788,2.38125 v 1.8974 h -1.19599 -1.19599 z M 28.368064,223.38956 c -0.05849,-0.1525 -0.07529,-5.51603 -0.03733,-11.91894 l 0.06902,-11.64167 h 7.937499 7.9375 l 0.07774,1.91823 0.07774,1.91823 h -5.832424 -5.832424 v 2.91042 2.91041 h 4.762499 4.7625 v 1.98438 1.98437 h -4.7625 -4.762499 v 3.04271 3.04271 h 5.953124 5.953125 v 1.98437 1.98438 l -7.342187,0.0341 c -4.038203,0.0188 -7.682575,0.0542 -8.098605,0.0788 -0.41603,0.0246 -0.804276,-0.08 -0.86277,-0.23256 z m 44.948356,0.17423 -1.914579,-0.0777 -0.06979,-8.50116 -0.0698,-8.50116 -3.503195,6.88549 c -3.497772,6.87484 -3.5045,6.88545 -4.34696,6.85903 -1.027593,-0.0322 -1.304593,-0.47043 -5.114428,-8.09108 -1.455208,-2.91079 -2.705364,-5.29343 -2.778125,-5.29476 -0.07276,-0.001 -0.09772,3.74813 -0.05546,8.33213 l 0.07683,8.33455 h -2.130074 -2.130075 l 0.06887,-11.84011 0.06887,-11.8401 2.441499,-0.076 2.441499,-0.076 3.545524,7.08716 3.545525,7.08715 3.537976,-7.0854 3.537976,-7.08539 2.513541,0.0742 2.513542,0.0742 0.06893,11.75794 c 0.03791,6.46687 -0.02162,11.82468 -0.132292,11.90625 -0.110674,0.0816 -1.062786,0.11336 -2.115805,0.0707 z m 9.564651,-0.0326 c -0.0602,-0.0606 -0.109447,-5.45952 -0.109447,-11.99753 v -11.88728 l 6.019271,0.11157 c 6.388737,0.11842 7.318165,0.27877 9.053893,1.56205 1.242358,0.91851 2.124752,2.93221 2.124752,4.84886 0,1.96857 -0.563256,3.1291 -2.087787,4.3017 l -1.107775,0.85205 0.870177,0.37362 c 2.373435,1.01906 3.433675,3.3773 2.875625,6.3961 -0.30878,1.67033 -0.960987,2.79983 -2.195293,3.80182 -1.574063,1.27781 -2.572208,1.45268 -9.159562,1.60475 -3.395923,0.0784 -6.223658,0.0929 -6.283854,0.0323 z m 11.0227,-3.99187 c 1.330469,-0.3696 2.132285,-1.32262 2.289997,-2.72184 0.157602,-1.39823 -0.195903,-2.15235 -1.334343,-2.84651 -0.722483,-0.44053 -1.34423,-0.51416 -4.348739,-0.51501 l -3.505729,-9.9e-4 v 3.175 3.17501 l 2.976562,-0.001 c 1.63711,-8.2e-4 3.402123,-0.11969 3.922252,-0.26418 z m 0.909759,-10.86148 c 1.293856,-1.29531 0.798683,-4.14115 -0.828177,-4.75968 -0.365664,-0.13902 -2.085844,-0.25277 -3.82262,-0.25277 h -3.157776 v 2.93092 2.93091 l 3.566617,-0.0866 c 3.417323,-0.083 3.594886,-0.11495 4.241956,-0.76274 z m 35.04938,14.8754 c -0.29052,-0.0985 -0.36877,-21.17877 -0.085,-22.89663 l 0.16923,-1.02441 5.31797,0.13132 c 4.43189,0.10943 5.60635,0.22395 7.04882,0.68729 3.40555,1.09392 5.07368,3.43317 5.12248,7.18333 0.0405,3.114 -0.97094,4.99435 -3.43437,6.38463 -0.8975,0.50651 -1.36486,0.924 -1.24833,1.11511 0.10246,0.16801 1.35261,2.12751 2.77813,4.35446 1.42552,2.22694 2.59211,4.07241 2.59243,4.10104 3.2e-4,0.0286 -1.16326,0.015 -2.58573,-0.0304 l -2.58631,-0.0824 -2.52842,-4.15091 -2.52842,-4.15091 -1.90905,-0.078 -1.90906,-0.078 0.0386,4.17902 0.0386,4.17902 -2.01578,0.13229 c -1.10868,0.0728 -2.1328,0.0926 -2.27583,0.0441 z m 11.72049,-13.07732 c 1.08335,-0.71185 1.59303,-1.91812 1.44803,-3.42713 -0.2418,-2.51646 -1.88221,-3.3834 -6.40197,-3.3834 h -2.52867 v 3.66007 c 0,2.01304 0.0491,3.70968 0.10916,3.77031 0.06,0.0606 1.58422,0.0507 3.38707,-0.0221 2.51987,-0.1017 3.44175,-0.23994 3.98638,-0.5978 z m 33.16775,13.11413 c -0.093,-0.093 -0.16911,-5.50882 -0.16911,-12.03514 v -11.86603 l 8.00364,0.07 8.00365,0.07 0.0777,1.91823 0.0777,1.91823 h -5.96471 -5.96472 v 2.90431 2.90431 l 4.69635,0.0722 4.69636,0.0722 0.0777,1.91823 0.0777,1.91823 h -4.77409 -4.77409 v 3.04271 3.04271 h 6.08542 6.08541 v 1.98437 1.98438 l -7.47448,0.0197 c -4.11096,0.0108 -7.7258,0.0671 -8.03297,0.12501 -0.30717,0.058 -0.63459,0.0292 -0.7276,-0.0638 z m 48.08065,-0.2132 c -0.0557,-0.14552 -0.0703,-5.50334 -0.0323,-11.90625 l 0.069,-11.64167 h 7.67292 7.67292 v 1.85208 1.85209 l -5.49011,0.0715 -5.4901,0.0715 v 3.03735 3.03734 h 4.50904 4.50905 l -0.0773,2.05052 -0.0773,2.05052 -4.42583,0.0725 -4.42582,0.0725 -0.0721,4.78084 -0.0721,4.78084 -2.08434,0.0414 c -1.18537,0.0236 -2.12805,-0.0727 -2.18569,-0.22314 z M 107.05256,211.84194 c -0.0394,-6.41696 -0.004,-11.77658 0.0788,-11.91026 0.0875,-0.14147 3.46003,-0.21372 8.06979,-0.17289 l 7.91941,0.0702 v 1.85208 1.85209 l -5.88698,0.0712 -5.88698,0.0712 v 2.90536 2.90535 h 4.7625 4.7625 v 1.98438 1.98437 h -4.7625 -4.7625 v 3.03775 3.03774 l 6.01927,0.0711 6.01927,0.0711 0.0777,1.91823 0.0777,1.91823 h -8.20826 -8.20825 z m 47.15656,-0.23491 v -11.91037 h 2.11667 2.11666 v 9.9164 9.91639 l 5.35782,0.0716 5.35781,0.0716 v 1.85208 1.85209 l -7.47448,0.0703 -7.47448,0.0703 z m 40.82721,11.5714 c 0.0759,-0.1819 2.06595,-5.33136 4.42234,-11.44323 2.35638,-6.11187 4.39732,-11.32557 4.53542,-11.58598 0.21546,-0.40629 0.55796,-0.46261 2.41369,-0.39687 l 2.16261,0.0766 0.8576,2.11667 c 1.1232,2.77216 5.37221,13.72295 6.82695,17.59479 0.62877,1.67349 1.22772,3.25573 1.33098,3.51608 0.17347,0.43736 0.001,0.46756 -2.2665,0.39688 l -2.45426,-0.0765 -0.92344,-2.58551 -0.92344,-2.58551 -4.75656,0.072 -4.75656,0.072 -0.92472,2.57969 -0.92472,2.57969 h -2.37869 c -1.80016,0 -2.34513,-0.0804 -2.2407,-0.33073 z m 14.66556,-8.99583 c -0.0695,-0.18191 -0.81459,-2.20597 -1.65578,-4.49792 -0.84119,-2.29195 -1.61607,-4.16719 -1.72195,-4.16719 -0.22033,0 -0.32543,0.25824 -1.93822,4.7625 -0.65131,1.81901 -1.26653,3.51565 -1.36715,3.77031 -0.16866,0.42685 0.0902,0.46303 3.31325,0.46303 2.68795,0 3.46699,-0.0765 3.36985,-0.33073 z m -80.80013,-26.88667 c -2.1392,-1.18327 -9.07074,-5.25222 -20.20097,-11.85835 -2.69214,-1.59786 -7.51417,-4.4356 -10.715625,-6.30609 -23.916199,-13.9733 -26.878401,-15.7631 -27.500818,-16.61631 -0.543303,-0.74476 -0.545014,-0.84941 -0.545014,-33.3375 0,-31.404103 0.01807,-32.620222 0.496336,-33.410107 0.567653,-0.937506 1.939384,-1.771485 28.475537,-17.312439 5.893594,-3.451595 15.120934,-8.865862 20.505204,-12.031704 5.38428,-3.165842 10.20064,-5.930835 10.70304,-6.144428 1.6785,-0.713609 2.39944,-0.389059 12.18342,5.484673 1.38245,0.82994 5.96636,3.509386 10.18646,5.954322 4.2201,2.444937 8.50635,4.945189 9.525,5.556115 1.01864,0.610927 4.23333,2.516527 7.14375,4.234667 7.80639,4.608435 21.51457,12.793432 22.52554,13.449733 0.48329,0.313748 1.00334,0.924268 1.15567,1.356712 0.3059,0.868454 0.34235,63.115466 0.0382,65.227276 -0.20019,1.3899 0.0318,1.22053 -8.77044,6.40273 -2.98318,1.7563 -8.57912,5.06415 -12.43542,7.35077 -34.11826,20.23067 -38.60552,22.81564 -39.81979,22.9389 -0.85719,0.087 -1.41786,-0.0914 -2.95007,-0.93897 z m 10.88757,-10.80823 c 3.92906,-2.32005 9.22734,-5.44677 11.77396,-6.94827 2.54661,-1.5015 9.5713,-5.67163 15.61041,-9.26696 6.03912,-3.59532 12.17084,-7.2223 13.62604,-8.05995 3.7318,-2.14811 4.44199,-2.6612 5.00674,-3.61724 0.47862,-0.81023 0.49871,-1.95192 0.52361,-29.75111 0.0258,-28.771688 0.0233,-28.91208 -0.51803,-29.656665 -0.68479,-0.941844 -10.95756,-7.1284 -33.45502,-20.147571 -4.14735,-2.400047 -10.41224,-6.071462 -13.92198,-8.1587 -3.50974,-2.087239 -6.60537,-3.794724 -6.87917,-3.794411 -0.64481,7.35e-4 -2.86432,1.17561 -6.9801,3.694841 -1.81901,1.113401 -5.0337,3.0165 -7.14375,4.229109 -2.11005,1.212609 -7.70599,4.492367 -12.43542,7.28835 -4.72942,2.795984 -11.69458,6.903967 -15.478121,9.128851 -8.801667,5.175757 -10.98258,6.500289 -11.668966,7.086902 -1.353196,1.156497 -1.289746,-0.228341 -1.378519,30.086994 -0.05587,19.07973 0.0069,28.61594 0.192533,29.24745 0.151488,0.51536 0.605513,1.23869 1.008943,1.60739 0.40343,0.3687 4.60304,2.93596 9.332467,5.70501 4.729427,2.76905 13.540053,7.92815 19.579163,11.46466 6.03912,3.53651 13.74265,8.08162 17.11896,10.10024 6.88383,4.1157 7.62522,4.48515 8.4019,4.18694 0.29733,-0.11417 3.75529,-2.1058 7.68435,-4.42586 z m -5.15937,-56.64873 c 0,-32.719739 0.0846,-46.898766 0.28051,-47.019856 0.15429,-0.09535 1.99935,0.855502 4.10014,2.113012 l 3.81961,2.286383 0.0671,37.492721 c 0.0632,35.31984 0.0935,37.49066 0.52364,37.45705 0.5691,-0.0445 21.75069,-12.42935 22.2155,-12.98941 0.24193,-0.29152 0.33997,-1.54814 0.34276,-4.39325 l 0.004,-3.98494 3.68859,-2.2057 c 2.02872,-1.21314 3.84442,-2.14591 4.03489,-2.07282 0.27525,0.10563 0.34631,1.84833 0.34631,8.49245 v 8.35955 l -0.7276,0.68393 c -0.40019,0.37616 -4.83526,3.08942 -9.85573,6.02947 -5.02047,2.94005 -13.34673,7.82071 -18.5028,10.84592 -5.15606,3.02521 -9.59114,5.55699 -9.85573,5.62618 -0.46368,0.12126 -0.48105,-1.56606 -0.48105,-46.72069 z m -18.78542,39.80541 c -5.45703,-3.24428 -13.67234,-8.10423 -18.25625,-10.79988 -7.361359,-4.329 -8.353887,-4.99045 -8.501508,-5.66566 -0.227089,-1.03871 -0.223568,-47.689771 0.0037,-48.521754 0.205865,-0.753755 0.508701,-0.957259 7.836387,-5.266 8.740381,-5.139421 18.469111,-10.869646 24.006791,-14.140014 2.87175,-1.695962 5.3423,-3.083568 5.4901,-3.083568 0.17728,0 0.26874,3.473606 0.26874,10.206811 v 10.20681 l -0.72761,0.716225 c -0.98199,0.966635 -6.86827,4.348998 -7.20564,4.140492 -0.16752,-0.103534 -0.26884,-2.154545 -0.26884,-5.442204 0,-3.507387 -0.0931,-5.276051 -0.27772,-5.276051 -0.15275,0 -0.65877,0.195839 -1.12448,0.435198 -1.14338,0.587649 -17.787898,10.294183 -19.036862,11.101669 l -0.992188,0.641474 v 7.372182 c 0,5.83345 0.07389,7.4335 0.354002,7.66597 0.242584,0.20133 3.552728,0.31562 10.517188,0.36313 l 10.16319,0.0693 v 3.83646 3.83645 l -10.16319,0.0693 c -6.96446,0.0475 -10.274604,0.16179 -10.517188,0.36312 -0.281596,0.23371 -0.354002,1.96109 -0.354002,8.44547 v 8.15167 l 0.727604,0.50723 c 0.698854,0.4872 10.475036,6.28256 22.645156,13.42414 4.20152,2.46551 5.84568,3.56868 6.02614,4.04333 0.1365,0.35902 0.21532,2.39155 0.17516,4.51674 -0.0604,3.19447 -0.14178,3.87409 -0.46989,3.92228 -0.21828,0.0321 -4.86172,-2.59612 -10.31875,-5.84039 z"
       id="path1" /></g></svg>
